<?xml version="1.0" encoding="iso-8859-1"?>
<!-- Generator: Adobe Illustrator 19.0.0, SVG Export Plug-In . SVG Version: 6.00 Build 0)  -->
<svg version="1.1" id="Layer_1" xmlns="http://www.w3.org/2000/svg" xmlns:xlink="http://www.w3.org/1999/xlink" x="0px" y="0px"
	 viewBox="0 0 392.663 392.663" style="enable-background:new 0 0 392.663 392.663;" xml:space="preserve">
<path style="fill:#FFFFFF;" d="M82.618,37.883h23.79c6.012,0,10.925,4.848,10.925,10.925c0,6.012-4.848,10.925-10.925,10.925h-23.79
	v21.786h23.79c6.012,0,10.925,4.848,10.925,10.925c0,6.012-4.848,10.925-10.925,10.925h-23.79v185.923h23.79
	c6.012,0,10.925,4.848,10.925,10.925c0,6.012-4.848,10.925-10.925,10.925h-23.79v21.786h23.79c6.012,0,10.925,4.848,10.925,10.925
	c0,6.012-4.848,10.925-10.925,10.925h-23.79v16.097H342.82V21.786H82.618V37.883z"/>
<path style="fill:#56ACE0;" d="M106.473,311.014h-2.069V332.8h2.004c6.012,0,10.925,4.848,10.925,10.925
	c0,1.875-0.517,3.62-1.422,5.172h204.994V43.572H115.976c0.84,1.552,1.422,3.297,1.422,5.172c0,6.012-4.848,10.925-10.925,10.925
	h-2.069v21.786h2.004c6.012,0,10.925,4.848,10.925,10.925c0,6.012-4.848,10.925-10.925,10.925h-2.004v185.923h2.004
	c6.012,0,10.925,4.848,10.925,10.925C117.333,306.166,112.42,311.014,106.473,311.014z"/>
<g>
	<path style="fill:#194F82;" d="M211.782,192c16.162,0,30.513-8.663,34.78-12.347l-6.465-11.313
		c-8.21,7.822-17.584,11.766-28.315,11.766c-26.893,0-48.291-21.075-48.291-50.101c0-24.824,18.877-52.299,51.135-52.299
		c29.996,0,47.321,23.79,47.321,51.782c0,6.853-1.099,12.606-3.232,17.131c-2.133,4.59-4.719,6.788-7.564,6.788
		c-3.168,0-4.784-2.651-4.784-7.952V94.772h-19.846v6.465c0,0-7.628-8.339-17.778-8.404c-23.014-0.065-32.517,21.721-32.517,37.107
		c0,19.846,14.481,35.943,33.293,35.943c8.986,0,16.291-3.814,22.174-11.313c1.228,3.685,6.594,12.8,17.907,12.8
		c7.822,0,14.158-3.556,19.006-10.602c4.784-7.046,7.24-16.356,7.24-28.057c0-35.232-26.117-63.224-62.061-63.224
		c-38.4,0-64.129,32-64.129,64.194C149.592,170.408,182.044,192,211.782,192z M211.653,148.364
		c-12.218,0-15.063-13.964-15.063-19.135c0-5.107,2.715-18.166,14.933-18.166c4.59,0,15.192,3.879,15.192,18.36
		C226.715,134.788,224.065,148.364,211.653,148.364z"/>
	<path style="fill:#194F82;" d="M260.137,265.503h-95.03c-6.012,0-10.925,4.849-10.925,10.925c0,6.012,4.848,10.925,10.925,10.925
		h95.03c6.012,0,10.925-4.848,10.925-10.925C271.063,270.352,266.214,265.503,260.137,265.503z"/>
	<path style="fill:#194F82;" d="M260.137,315.216h-95.03c-6.012,0-10.925,4.848-10.925,10.925c0,6.012,4.848,10.925,10.925,10.925
		h95.03c6.012,0,10.925-4.849,10.925-10.925S266.214,315.216,260.137,315.216z"/>
	<path style="fill:#194F82;" d="M353.681,0H71.693c-6.012,0-10.925,4.848-10.925,10.925v26.958H38.982
		c-6.012,0-10.925,4.848-10.925,10.925c0,6.012,4.848,10.925,10.925,10.925h21.786v21.786H38.982
		c-6.012,0-10.925,4.848-10.925,10.925c0,6.012,4.848,10.925,10.925,10.925h21.786v185.923H38.982
		c-6.012,0-10.925,4.848-10.925,10.925c0,6.012,4.848,10.925,10.925,10.925h21.786v21.786H38.982
		c-6.012,0-10.925,4.848-10.925,10.925c0,6.012,4.848,10.925,10.925,10.925h21.786v26.958c0,6.012,4.848,10.925,10.925,10.925
		h281.988c6.012,0,10.925-4.848,10.925-10.925V10.861C364.541,4.848,359.693,0,353.681,0z M342.756,370.747H82.618v-16.097h23.79
		c6.012,0,10.925-4.848,10.925-10.925c0-6.012-4.848-10.925-10.925-10.925h-23.79v-21.786h23.79c6.012,0,10.925-4.848,10.925-10.925
		c0-6.012-4.848-10.925-10.925-10.925h-23.79V103.305h23.79c6.012,0,10.925-4.848,10.925-10.925c0-6.012-4.848-10.925-10.925-10.925
		h-23.79V59.669h23.79c6.012,0,10.925-4.848,10.925-10.925c0-6.012-4.848-10.99-10.796-10.99h-23.79V21.657h260.202v348.962h-0.194
		V370.747z"/>
</g>
<g>
</g>
<g>
</g>
<g>
</g>
<g>
</g>
<g>
</g>
<g>
</g>
<g>
</g>
<g>
</g>
<g>
</g>
<g>
</g>
<g>
</g>
<g>
</g>
<g>
</g>
<g>
</g>
<g>
</g>
</svg>
